<svg width="114" height="114" viewBox="0 0 114 114" fill="none" xmlns="http://www.w3.org/2000/svg">
<path d="M100.197 44.0108L87.2141 56.9933L100.197 69.9758L113.179 56.9933L100.197 44.0108Z" fill="#00ff00"/>
<path d="M13.8096 44.0178L0.827148 57.0003L13.8096 69.9827L26.7921 57.0003L13.8096 44.0178Z" fill="#00ff00"/>
<path d="M56.9999 87.2203L35.4799 65.7003L22.4999 78.6803L56.9999 113.18L91.4999 78.6803L78.5199 65.7003L56.9999 87.2203Z" fill="#00ff00"/>
<path d="M56.9999 26.7803L78.5199 48.3003L91.4999 35.3203L56.9999 0.820312L22.4999 35.3203L35.4799 48.3003L56.9999 26.7803Z" fill="#00ff00"/>
<path d="M56.9925 44.1805L44.1727 57.0003L56.9925 69.8202L69.8123 57.0003L56.9925 44.1805Z" fill="#00ff00"/>
</svg>
