<svg width="138" height="56" viewBox="0 0 138 56" fill="none" xmlns="http://www.w3.org/2000/svg">
<path d="M6.39686 0.21362C5.38608 0.459486 3.84332 1.23984 3.04534 1.90261C1.70473 3.02504 0.651394 4.72472 0.215164 6.45647C-0.0508294 7.49338 -0.0721089 9.35341 0.161966 10.3689C0.779071 13.0307 2.38567 15.0297 4.84346 16.2056C6.09895 16.7935 7.09908 17.018 8.56737 17.0073C10.8656 16.9966 12.7807 16.2056 14.4618 14.57C14.781 14.26 15.0683 14.0035 15.0895 14.0035C15.1215 14.0035 17.0473 15.1152 19.388 16.4835L23.6439 18.9529L23.5694 19.3377C23.0693 21.8926 23.6652 23.9771 25.3037 25.4523L25.857 25.9547L22.2075 33.6941L18.5687 41.4442L18.1538 41.3053C17.9304 41.2198 17.3239 41.1022 16.8132 41.0273C12.9509 40.5142 9.30151 43.2081 8.55673 47.1205C7.90771 50.5306 9.6739 53.9513 12.8339 55.3838C13.9404 55.8862 14.7703 56.0358 16.228 55.9931C17.3132 55.961 17.6431 55.9076 18.4198 55.6296C21.4521 54.55 23.4098 51.7599 23.4098 48.4995C23.4098 46.4043 22.7608 44.7902 21.3138 43.2936L20.4307 42.3849L27.7296 26.8847L28.102 26.9382C28.3041 26.9702 28.9425 26.9916 29.5277 26.9916C31.0704 26.9809 32.3685 26.4892 33.3793 25.5271C33.6027 25.3026 33.7623 25.2385 33.8687 25.2919C33.9538 25.3454 35.7413 26.7564 37.8586 28.424L41.6889 31.4493L41.5293 31.8982C41.3059 32.5182 41.2314 33.8224 41.3804 34.5493C41.9123 37.1256 44.5084 38.9214 47.0726 38.4939C48.9665 38.1732 50.4561 36.9011 51.0625 35.0838C51.3605 34.2179 51.3605 32.871 51.0838 31.9731C50.0943 28.7875 46.2002 27.4513 43.4445 29.3541L42.9018 29.7282L38.9119 26.5747L34.922 23.4105L35.1348 22.7478C35.5498 21.465 35.4008 19.5943 34.7944 18.3863L34.6028 18.0122L42.3486 11.7479L42.9657 12.1221C44.8383 13.2552 47.2641 13.3407 49.2963 12.3252C50.8178 11.5662 52.1691 9.84514 52.6159 8.12408C52.8713 7.162 52.7862 5.23783 52.4563 4.30782C51.8286 2.52262 50.3922 1.06881 48.5409 0.352587C47.5833 -0.0215562 45.732 -0.117765 44.6893 0.160171C43.0508 0.587763 41.3165 1.94537 40.5611 3.3885C39.5822 5.2699 39.5503 7.58959 40.4866 9.46031C40.8377 10.1658 40.8484 10.2086 40.6781 10.3796C40.5717 10.4758 38.8694 11.8548 36.901 13.4583L33.3154 16.3552L32.6345 15.9277C31.4748 15.2007 30.8896 15.0404 29.3681 15.0297C28.1871 15.0297 27.9636 15.0618 27.3359 15.3076C26.4528 15.6604 25.857 16.0345 25.1973 16.6546L24.6866 17.1356L23.7609 16.5904C18.3134 13.4369 16.228 12.1755 16.2493 12.0579C16.2599 11.9831 16.3982 11.5769 16.5472 11.1493C17.0898 9.60997 17.0898 7.42925 16.5472 5.7937C16.0365 4.25437 14.9406 2.69366 13.7064 1.76364C12.8446 1.11156 11.3337 0.384657 10.3548 0.17086C9.31215 -0.0643155 7.41828 -0.0429358 6.39686 0.21362Z" fill="#15EC15"/>
<path d="M61.1816 13.5536C61.1816 11.657 62.13 10.7086 64.0267 10.7086H75.4072C77.304 10.7086 78.2523 11.657 78.2523 13.5536V23.5112C78.2523 25.4079 77.304 26.3562 75.4072 26.3562H66.8718L68.2944 22.0887H73.9847V14.9762H65.4493V32.0462H61.1816V13.5536Z" fill="white"/>
<path d="M81.0975 19.2437C81.0975 17.347 82.0459 16.3987 83.9426 16.3987H95.3231C97.2199 16.3987 98.1682 17.347 98.1682 19.2437V32.0462H93.9005L93.8863 20.6662H85.3652V27.7787H92.478L91.0554 32.0462H83.9568C82.0506 32.0462 81.0975 31.0979 81.0975 29.2012V19.2437Z" fill="white"/>
<path d="M101.013 32.0462V19.2437C101.013 17.347 101.962 16.3987 103.858 16.3987H112.38L110.957 20.6662H105.281V32.0462H101.013Z" fill="white"/>
<path d="M118.084 10.7086L116.662 14.9762H113.816V10.7086H118.084ZM118.084 32.0462V16.3987H113.816V32.0462H118.084Z" fill="white"/>
<path d="M138 29.2012C138 31.0979 137.052 32.0462 135.155 32.0462H123.774C121.878 32.0462 120.929 31.0979 120.929 29.2012V19.2437C120.929 17.347 121.878 16.3987 123.774 16.3987H135.155C137.052 16.3987 138 17.347 138 19.2437V29.2012ZM125.197 20.6662V27.7787H133.732V20.6662H125.197Z" fill="white"/>
</svg>
