<svg width="1696" height="1444" viewBox="0 0 1696 1444" fill="none" xmlns="http://www.w3.org/2000/svg">
<path d="M912.784 635.852C925.655 633.824 935.994 634.325 943.688 636.926C951.366 639.521 956.404 644.202 958.738 650.57C961.08 656.958 960.731 665.12 957.461 674.711C954.193 684.299 948.02 695.273 938.78 707.248C920.301 731.198 893.109 754.544 864.078 772.92C835.043 791.299 804.214 804.678 778.473 808.734C765.602 810.762 755.262 810.26 747.569 807.66C739.891 805.064 734.853 800.384 732.518 794.015C730.176 787.628 730.526 779.466 733.795 769.874C737.064 760.287 743.237 749.313 752.476 737.338C770.955 713.388 798.148 690.041 827.178 671.665C856.213 653.286 887.043 639.907 912.784 635.852ZM939.572 707.859C948.856 695.827 955.094 684.756 958.408 675.034C961.721 665.316 962.125 656.903 959.677 650.226C957.222 643.529 951.925 638.655 944.008 635.979C936.106 633.308 925.59 632.822 912.628 634.864C886.704 638.948 855.744 652.4 826.644 670.82C797.539 689.243 770.251 712.664 751.684 736.727C742.401 748.758 736.163 759.829 732.849 769.552C729.536 779.27 729.131 787.682 731.579 794.36C734.035 801.057 739.332 805.931 747.249 808.607C755.15 811.278 765.667 811.764 778.628 809.722C804.552 805.637 835.513 792.186 864.613 773.765C893.717 755.343 921.005 731.922 939.572 707.859ZM991.135 536.726C1018.68 532.386 1040.87 533.448 1057.43 539.044C1073.97 544.635 1084.88 554.745 1089.93 568.536C1095 582.347 1094.22 599.926 1087.21 620.489C1080.2 641.048 1066.98 664.548 1047.21 690.163C1007.68 741.393 949.537 791.312 887.474 830.597C825.408 869.884 759.471 898.508 704.375 907.189C676.826 911.529 654.637 910.466 638.082 904.87C621.543 899.28 610.634 889.17 605.577 875.379C600.513 861.568 601.291 843.989 608.301 823.425C615.31 802.866 628.534 779.366 648.298 753.752C687.826 702.522 745.973 652.603 808.035 613.318C870.102 574.031 936.039 545.407 991.135 536.726ZM1048 690.774C1067.81 665.102 1081.1 641.506 1088.16 620.812C1095.21 600.122 1096.04 582.292 1090.87 568.192C1085.69 554.072 1074.53 543.768 1057.75 538.097C1040.99 532.431 1018.62 531.383 990.98 535.738C935.701 544.448 869.632 573.145 807.501 612.473C745.365 651.804 687.122 701.797 647.507 753.141C627.699 778.812 614.409 802.409 607.355 823.103C600.302 843.793 599.468 861.622 604.638 875.723C609.815 889.843 620.984 900.147 637.762 905.818C654.524 911.484 676.891 912.531 704.53 908.176C759.809 899.467 825.878 870.77 888.009 831.442C950.145 792.11 1008.39 742.117 1048 690.774ZM1053.64 455.718C1093.22 449.481 1125.13 451.004 1148.95 459.056C1172.76 467.103 1188.48 481.665 1195.77 501.543C1203.06 521.441 1201.93 546.742 1191.86 576.302C1181.78 605.858 1162.78 639.629 1134.38 676.429C1077.59 750.028 994.063 821.736 904.916 878.166C815.764 934.598 721.038 975.723 641.87 988.196C602.286 994.433 570.38 992.91 546.56 984.858C522.754 976.812 507.03 962.25 499.742 942.371C492.446 922.474 493.576 897.172 503.652 867.612C513.728 838.057 532.735 804.286 561.129 767.486C617.917 693.886 701.447 622.178 790.595 565.749C879.746 509.317 974.472 468.192 1053.64 455.718ZM1135.17 677.04C1163.61 640.183 1182.68 606.315 1192.8 576.625C1202.92 546.938 1204.11 521.386 1196.71 501.199C1189.3 480.992 1173.31 466.236 1149.27 458.109C1125.24 449.987 1093.16 448.479 1053.48 454.73C974.134 467.233 879.277 508.43 790.06 564.904C700.839 621.38 617.213 693.162 560.337 766.875C531.899 803.731 512.827 837.599 502.706 867.29C492.586 896.976 491.401 922.528 498.803 942.716C506.212 962.923 522.195 977.678 546.239 985.806C570.268 993.928 602.351 995.435 642.026 989.184C721.376 976.682 816.233 935.485 905.45 879.011C994.672 822.535 1078.3 750.753 1135.17 677.04ZM1117.26 373.268C1169.09 365.1 1210.89 367.092 1242.1 377.644C1273.3 388.19 1293.93 407.283 1303.49 433.357C1313.06 459.45 1311.57 492.612 1298.37 531.329C1285.17 570.041 1260.28 614.267 1223.1 662.45C1148.75 758.818 1039.38 852.704 922.666 926.584C805.946 1000.47 681.918 1054.32 578.251 1070.65C526.416 1078.82 484.62 1076.82 453.404 1066.27C422.203 1055.73 401.578 1036.63 392.018 1010.56C382.451 984.466 383.938 951.305 397.137 912.588C410.334 873.875 435.226 829.65 472.404 781.466C546.76 685.098 656.125 591.213 772.841 517.332C889.561 443.45 1013.59 389.601 1117.26 373.268ZM1223.9 663.061C1261.12 614.821 1286.07 570.499 1299.32 531.651C1312.56 492.808 1314.1 459.396 1304.43 433.013C1294.75 406.61 1273.86 387.324 1242.42 376.696C1211 366.074 1169.03 364.098 1117.1 372.28C1013.25 388.642 889.092 442.563 772.306 516.487C655.517 590.414 546.056 684.374 471.612 780.855C434.39 829.096 409.433 873.418 396.19 912.265C382.949 951.109 381.406 984.521 391.079 1010.9C400.76 1037.31 421.644 1056.59 453.084 1067.22C484.508 1077.84 526.481 1079.82 578.406 1071.64C682.257 1055.27 806.415 1001.35 923.201 927.429C1039.99 853.502 1149.45 759.543 1223.9 663.061ZM1181.58 289.901C1245.8 279.783 1297.6 282.248 1336.29 295.327C1374.97 308.401 1400.55 332.076 1412.41 364.414C1424.27 396.771 1422.42 437.88 1406.07 485.855C1389.71 533.826 1358.87 588.622 1312.81 648.316C1220.69 767.705 1085.21 884.014 940.615 975.539C796.021 1067.07 642.366 1133.78 513.926 1154.02C449.706 1164.13 397.91 1161.67 359.216 1148.59C320.538 1135.52 294.958 1111.84 283.101 1079.5C271.237 1047.15 273.086 1006.04 289.441 958.062C305.794 910.09 336.637 855.295 382.696 795.6C474.815 676.211 610.302 559.902 754.892 468.378C899.487 376.851 1053.14 310.138 1181.58 289.901ZM1313.6 648.927C1359.71 589.176 1390.61 534.284 1407.01 486.178C1423.41 438.076 1425.32 396.717 1413.35 364.069C1401.37 331.403 1375.53 307.534 1336.61 294.38C1297.71 281.23 1245.74 278.78 1181.43 288.913C1052.8 309.179 899.018 375.964 754.358 467.533C609.694 559.104 474.111 675.487 381.904 794.99C335.801 854.741 304.893 909.633 288.494 957.739C272.097 1005.84 270.192 1047.2 282.162 1079.85C294.139 1112.51 319.979 1136.38 358.896 1149.54C397.798 1162.69 449.771 1165.14 514.082 1155C642.705 1134.74 796.49 1067.95 941.15 976.384C1085.81 884.813 1221.4 768.429 1313.6 648.927ZM1250.63 200.41C1328.15 188.196 1390.68 191.17 1437.4 206.962C1484.1 222.75 1515 251.342 1529.33 290.405C1543.65 329.487 1541.42 379.126 1521.68 437.04C1501.93 494.951 1464.7 561.093 1409.11 633.143C1297.92 777.244 1134.4 917.625 959.883 1028.09C785.366 1138.56 599.908 1219.08 444.876 1243.51C367.36 1255.72 304.829 1252.75 258.109 1236.95C211.404 1221.17 180.504 1192.57 166.182 1153.51C151.853 1114.43 154.09 1064.79 173.832 1006.88C193.574 948.966 230.805 882.824 286.398 810.773C397.584 666.672 561.112 526.292 735.625 415.827C910.142 305.359 1095.6 224.837 1250.63 200.41Z" stroke="url(#paint0_linear_1224_1930)"/>
<path d="M498 940V521.143H665.926C696.781 521.143 722.516 525.711 743.131 534.846C763.746 543.981 779.242 556.661 789.618 572.886C799.994 588.975 805.182 607.519 805.182 628.516C805.182 644.878 801.905 659.262 795.352 671.67C788.799 683.941 779.788 694.031 768.32 701.939C756.988 709.71 744.019 715.232 729.41 718.505V722.595C745.384 723.277 760.333 727.776 774.259 736.093C788.321 744.411 799.721 756.068 808.458 771.066C817.196 785.928 821.565 803.653 821.565 824.242C821.565 846.466 816.036 866.305 804.977 883.757C794.055 901.073 777.877 914.776 756.442 924.865C735.008 934.955 708.59 940 677.189 940H498ZM586.673 867.6H658.963C683.674 867.6 701.696 862.896 713.027 853.488C724.359 843.944 730.025 831.263 730.025 815.447C730.025 803.858 727.226 793.632 721.628 784.769C716.031 775.907 708.044 768.953 697.668 763.908C687.429 758.863 675.21 756.341 661.011 756.341H586.673V867.6ZM586.673 696.417H652.41C664.561 696.417 675.346 694.303 684.767 690.076C694.323 685.713 701.832 679.578 707.293 671.67C712.891 663.762 715.69 654.285 715.69 643.241C715.69 628.107 710.297 615.904 699.511 606.632C688.862 597.361 673.708 592.725 654.048 592.725H586.673V696.417Z" fill="#094836"/>
<path d="M525.681 909.476V490.619H693.607C724.462 490.619 750.197 495.186 770.812 504.322C791.427 513.457 806.923 526.137 817.299 542.362C827.675 558.451 832.863 576.994 832.863 597.992C832.863 614.353 829.586 628.738 823.033 641.145C816.48 653.417 807.469 663.506 796.001 671.414C784.669 679.186 771.699 684.708 757.091 687.981V692.071C773.065 692.753 788.014 697.252 801.94 705.569C816.002 713.886 827.402 725.544 836.139 740.542C844.877 755.404 849.246 773.129 849.246 793.717C849.246 815.942 843.716 835.78 832.658 853.233C821.736 870.549 805.558 884.252 784.123 894.341C762.689 904.431 736.271 909.476 704.87 909.476H525.681ZM614.354 837.076H686.644C711.355 837.076 729.376 832.372 740.708 822.964C752.04 813.42 757.705 800.739 757.705 784.923C757.705 773.334 754.907 763.108 749.309 754.245C743.712 745.383 735.725 738.429 725.349 733.384C715.11 728.339 702.891 725.817 688.692 725.817H614.354V837.076ZM614.354 665.892H680.091C692.242 665.892 703.027 663.779 712.447 659.552C722.004 655.189 729.513 649.054 734.974 641.145C740.572 633.237 743.37 623.761 743.37 612.717C743.37 597.583 737.978 585.38 727.192 576.108C716.543 566.837 701.389 562.201 681.729 562.201H614.354V665.892Z" fill="#013826"/>
<path d="M561.435 866.857V448H729.361C760.216 448 785.951 452.568 806.566 461.703C827.182 470.838 842.677 483.518 853.053 499.744C863.429 515.832 868.617 534.376 868.617 555.373C868.617 571.735 865.34 586.119 858.787 598.527C852.234 610.798 843.223 620.888 831.755 628.796C820.424 636.567 807.454 642.09 792.845 645.362V649.452C808.819 650.134 823.768 654.633 837.694 662.951C851.756 671.268 863.156 682.925 871.894 697.924C880.631 712.785 885 730.51 885 751.099C885 773.323 879.471 793.162 868.412 810.614C857.49 827.93 841.312 841.633 819.877 851.723C798.443 861.812 772.025 866.857 740.624 866.857H561.435ZM650.108 794.457H722.398C747.109 794.457 765.131 789.753 776.462 780.345C787.794 770.801 793.46 758.121 793.46 742.304C793.46 730.715 790.661 720.489 785.063 711.626C779.466 702.764 771.479 695.81 761.103 690.765C750.864 685.72 738.645 683.198 724.446 683.198H650.108V794.457ZM650.108 623.274H715.845C727.996 623.274 738.781 621.16 748.202 616.934C757.758 612.57 765.267 606.435 770.728 598.527C776.326 590.619 779.125 581.143 779.125 570.098C779.125 554.964 773.732 542.761 762.946 533.489C752.297 524.218 737.143 519.582 717.483 519.582H650.108V623.274Z" fill="url(#paint1_linear_1224_1930)"/>
<path d="M1055.3 530.621C1052.43 526.784 1046.59 526.643 1046.59 526.643C1046.59 526.643 1051 521.942 1047.64 515.338C1045.49 511.107 1040.39 508.521 1032.91 510.572L1029.96 501L1023.91 502.833L1026.86 512.382L1021.84 513.916L1018.89 504.361L1012.82 506.224L1015.77 515.778L1006 518.752L1007.83 524.775L1013.76 522.965L1022.72 552.134L1016.79 553.955L1018.75 560.372L1028.51 557.434L1031.45 567L1037.51 565.12L1034.56 555.553L1039.58 554.026L1042.53 563.592L1048.59 561.747L1045.65 552.175L1047.05 551.746C1058.82 547.95 1060.28 537.238 1055.3 530.621ZM1023.82 519.909C1023.82 519.909 1026.29 519.139 1029.81 518.082C1033.17 517.077 1036.95 518.258 1038.06 521.537C1039.17 524.816 1037.3 528.494 1033.65 529.658C1030.31 530.727 1027.39 531.567 1027.39 531.567L1023.82 519.909ZM1040.77 546.628C1037.33 547.756 1032.76 549.072 1032.76 549.072L1029.05 536.967C1029.05 536.967 1033.17 535.792 1036.76 534.617C1041.06 533.224 1044.86 534.259 1046.07 538.037C1047.28 541.815 1045.43 545.106 1040.77 546.628Z" fill="#075A40"/>
<path d="M1060.5 786C1056.54 786.003 1052.63 786.932 1049.08 788.713C1045.54 790.495 1042.46 793.08 1040.08 796.263C1037.71 799.447 1036.11 803.141 1035.4 807.054C1034.7 810.966 1034.92 814.989 1036.04 818.803C1036.31 819.735 1036.94 820.52 1037.79 820.985C1038.64 821.451 1039.64 821.558 1040.57 821.285C1041.5 821.011 1042.28 820.379 1042.74 819.526C1043.21 818.674 1043.32 817.672 1043.04 816.74C1042.3 814.228 1042.11 811.586 1042.48 808.993C1042.84 806.4 1043.76 803.917 1045.17 801.712C1046.58 799.506 1048.45 797.631 1050.64 796.213C1052.84 794.795 1055.31 793.867 1057.9 793.493C1060.48 793.118 1063.12 793.306 1065.62 794.043C1068.13 794.781 1070.45 796.05 1072.42 797.765C1074.4 799.481 1075.98 801.602 1077.06 803.985C1078.15 806.368 1078.71 808.957 1078.71 811.576C1078.71 821.516 1070.81 829.362 1060.34 829.831C1058.16 829.909 1056.02 830.331 1053.97 831.081L1057.91 812.626C1058.12 811.677 1057.93 810.686 1057.41 809.871C1056.88 809.056 1056.05 808.484 1055.11 808.281C1054.16 808.078 1053.17 808.26 1052.36 808.788C1051.55 809.316 1050.98 810.145 1050.77 811.095L1042.86 848.124C1042.75 848.596 1042.74 849.084 1042.82 849.561C1042.91 850.037 1043.09 850.492 1043.35 850.899C1043.61 851.306 1043.95 851.657 1044.34 851.932C1044.74 852.207 1045.19 852.4 1045.66 852.5C1045.91 852.555 1046.17 852.582 1046.43 852.581C1047.26 852.58 1048.07 852.292 1048.72 851.765C1049.37 851.239 1049.82 850.505 1049.99 849.687L1051.07 844.685C1052.32 839.527 1055.29 837.439 1060.66 837.183C1074.87 836.558 1086 825.305 1086 811.62C1086 804.835 1083.31 798.328 1078.53 793.525C1073.75 788.723 1067.27 786.017 1060.5 786Z" fill="#0D9770"/>
<path d="M1061.45 853C1063.69 853 1065.51 851.181 1065.51 848.936C1065.51 846.692 1063.69 844.873 1061.45 844.873C1059.22 844.873 1057.4 846.692 1057.4 848.936C1057.4 851.181 1059.22 853 1061.45 853Z" fill="#0D9770"/>
<path d="M816 363.724L832 338L848 363.724L832 372.899L816 363.724Z" fill="#07412E"/>
<path d="M832 375.789L847.488 366.325L832 388L816.147 366.325L832 375.789Z" fill="#07412E"/>
<path d="M320.679 885.959V877.829H339.254V865H287.694V877.829H306.321V885.959C290.715 886.706 279 889.826 279 893.563C279 897.299 290.702 900.399 306.321 901.166V928H320.679V901.166C336.285 900.425 348 897.306 348 893.563C348 889.819 336.298 886.706 320.679 885.959ZM313.5 898.736C296.602 898.736 282.903 896.136 282.903 893.004C282.903 890.307 292.882 888.045 306.308 887.441V896.623C308.618 896.727 311.02 896.786 313.487 896.786C315.954 896.786 318.369 896.727 320.666 896.623V887.441C334.092 888.045 344.071 890.307 344.071 893.004C344.097 896.169 330.398 898.736 313.5 898.736Z" fill="var(--primary-green)"/>
<defs>
<linearGradient id="paint0_linear_1224_1930" x1="286.002" y1="810.468" x2="904.627" y2="1287.79" gradientUnits="userSpaceOnUse">
<stop stop-color="#074D39"/>
<stop offset="1" stop-color="#050517"/>
</linearGradient>
<linearGradient id="paint1_linear_1224_1930" x1="715.865" y1="432.031" x2="715.865" y2="919.842" gradientUnits="userSpaceOnUse">
<stop stop-color="var(--primary-green)"/>
<stop offset="0.430208" stop-color="#0AFFB9"/>
<stop offset="0.919792" stop-color="#1F5243"/>
</linearGradient>
</defs>
</svg>
