<svg width="95" height="19" viewBox="0 0 95 19" fill="none" xmlns="http://www.w3.org/2000/svg">
<path d="M18.1003 11.4128C16.8661 16.3208 11.9008 19.3345 6.96409 18.1003C2.05612 16.8661 -0.957547 11.9008 0.276622 6.9641C1.51079 2.05613 6.47616 -0.957548 11.4128 0.276621C16.3495 1.51079 19.3345 6.50487 18.1003 11.4128Z" fill="#F7931A"/>
<path d="M13.2497 7.88298C13.4219 6.64881 12.5035 6.01738 11.2406 5.55815L11.6424 3.89346L10.6379 3.63515L10.236 5.24244C9.97773 5.18504 9.6907 5.12763 9.43239 5.04152L9.83421 3.40553L8.82965 3.14722L8.42783 4.81192C8.19822 4.75451 7.99731 4.72581 7.7964 4.66841L6.41872 4.32398L6.16041 5.41464C6.16041 5.41464 6.90665 5.58685 6.87795 5.58685C7.27977 5.70166 7.36588 5.95997 7.33718 6.16089L6.87795 8.05519C6.90665 8.05519 6.93535 8.0839 6.99275 8.0839C6.96405 8.0839 6.93535 8.05519 6.87795 8.05519L6.21782 10.6957C6.16041 10.8106 6.0456 11.0115 5.75859 10.9254C5.75859 10.9541 5.01234 10.7531 5.01234 10.7531L4.52441 11.9012L5.84469 12.2169C6.103 12.2743 6.33262 12.3317 6.56223 12.3891L6.13171 14.0538L7.13626 14.3121L7.53808 12.6474C7.8251 12.7336 8.08342 12.791 8.34173 12.8484L7.93991 14.4844L8.94447 14.7427L9.37499 13.078C11.0971 13.3937 12.3887 13.2789 12.934 11.729C13.3645 10.4661 12.9053 9.74858 12.0155 9.28936C12.6183 9.23196 13.1349 8.80143 13.2497 7.88298ZM10.9536 11.1263C10.6379 12.3891 8.54264 11.7003 7.8538 11.5281L8.39913 9.31806C9.08797 9.49027 11.2693 9.80599 10.9536 11.1263ZM11.2693 7.88298C10.9823 9.03105 9.23148 8.45701 8.65745 8.31351L9.14537 6.30439C9.71941 6.4192 11.5563 6.67751 11.2693 7.88298Z" fill="white"/>
<path d="M33.5278 5.58679C34.2741 5.58679 34.9055 5.73029 35.4508 5.98861C35.9962 6.24692 36.4554 6.62005 36.7998 7.05057C37.1442 7.50979 37.4312 8.02642 37.6035 8.62916C37.7757 9.23189 37.8618 9.89202 37.8618 10.5809C37.8618 11.6428 37.6609 12.6474 37.259 13.6232C36.8572 14.5704 36.3406 15.4027 35.6517 16.1203C34.9629 16.8378 34.1593 17.3831 33.2408 17.785C32.3224 18.1868 31.3178 18.3877 30.2271 18.3877C30.0836 18.3877 29.854 18.3877 29.4809 18.3877C29.1078 18.3877 28.7347 18.359 28.2754 18.2729C27.8162 18.2155 27.357 18.1294 26.8404 17.9859C26.3237 17.8711 25.8645 17.6989 25.4053 17.4692L29.4235 0.564005L33.0112 0.0186768L31.5761 6.01731C31.8918 5.8738 32.2075 5.75899 32.4946 5.70159C32.839 5.61549 33.1547 5.58679 33.5278 5.58679ZM30.5142 15.5175C31.0595 15.5175 31.5761 15.374 32.0353 15.1157C32.5233 14.8574 32.9251 14.513 33.2695 14.0538C33.6139 13.6232 33.9009 13.1066 34.1019 12.5613C34.3028 12.0159 34.4176 11.4132 34.4176 10.8105C34.4176 10.0642 34.3028 9.49021 34.0445 9.05968C33.7861 8.62916 33.3269 8.42824 32.6668 8.42824C32.4372 8.42824 32.1788 8.45695 31.8057 8.54306C31.4613 8.62916 31.1456 8.77266 30.8586 9.03098L29.3374 15.4027C29.4235 15.4314 29.5096 15.4314 29.5957 15.4601C29.6531 15.4888 29.7392 15.4888 29.8253 15.4888C29.9114 15.4888 29.9975 15.4888 30.1123 15.4888C30.2271 15.4888 30.3419 15.5175 30.5142 15.5175Z" fill="white"/>
<path d="M41.5931 18.0717H38.1489L41.0478 5.84481H44.5207L41.5931 18.0717ZM43.2578 4.35233C42.7699 4.35233 42.3393 4.20882 41.9662 3.92181C41.5644 3.63479 41.3922 3.20427 41.3922 2.60153C41.3922 2.28581 41.4496 1.97009 41.5931 1.68308C41.7366 1.39606 41.9088 1.13775 42.1097 0.936843C42.3393 0.735931 42.569 0.563718 42.856 0.448912C43.143 0.334105 43.4587 0.2767 43.7744 0.2767C44.2624 0.2767 44.6929 0.420208 45.066 0.707224C45.4391 0.99424 45.64 1.42477 45.64 2.0275C45.64 2.34322 45.5826 2.65894 45.4391 2.94595C45.2956 3.23297 45.1234 3.49128 44.9225 3.69219C44.6929 3.8931 44.4633 4.06531 44.1762 4.18012C43.8892 4.29493 43.5735 4.35233 43.2578 4.35233Z" fill="white"/>
<path d="M47.5344 2.80187L51.1508 2.25654L50.261 5.87294H54.107L53.4182 8.7144H49.5722L48.5389 12.9909C48.4528 13.3354 48.3954 13.6798 48.3667 13.9955C48.338 14.3112 48.3954 14.5695 48.4815 14.7991C48.5676 15.0288 48.7398 15.201 48.9694 15.3158C49.1991 15.4306 49.5435 15.5167 50.0027 15.5167C50.3758 15.5167 50.7489 15.488 51.0934 15.4019C51.4378 15.3445 51.7822 15.2297 52.1553 15.1149L52.4136 17.7554C51.9544 17.9276 51.4378 18.0711 50.8924 18.1859C50.3471 18.3007 49.7157 18.3581 48.9694 18.3581C47.9075 18.3581 47.0751 18.1859 46.4724 17.8702C45.8697 17.5545 45.4678 17.124 45.2095 16.5786C44.9512 16.0333 44.8651 15.4019 44.8938 14.6843C44.9225 13.9668 45.0373 13.2206 45.2095 12.4169L47.5344 2.80187Z" fill="white"/>
<path d="M53.9634 13.1923C53.9634 12.1303 54.1356 11.1545 54.48 10.2073C54.8244 9.28888 55.3124 8.45653 55.9438 7.76769C56.5752 7.07885 57.3502 6.53352 58.2686 6.1317C59.1584 5.72987 60.1917 5.52897 61.311 5.52897C61.9999 5.52897 62.6313 5.58637 63.1766 5.72988C63.722 5.87338 64.2386 6.0456 64.6691 6.24651L63.4923 8.94446C63.1766 8.82965 62.8609 8.71484 62.5165 8.60004C62.1721 8.48523 61.7702 8.45653 61.2823 8.45653C60.1342 8.45653 59.2158 8.85835 58.5557 9.6333C57.8955 10.4369 57.5511 11.4989 57.5511 12.8192C57.5511 13.6228 57.7233 14.2543 58.0677 14.7422C58.4122 15.2301 59.0436 15.4597 59.962 15.4597C60.4213 15.4597 60.8518 15.4023 61.2536 15.3162C61.6841 15.2301 62.0573 15.1153 62.373 14.9718L62.6313 17.7271C62.2008 17.8994 61.7128 18.0429 61.1962 18.1864C60.6796 18.3012 60.0481 18.3873 59.3019 18.3873C58.3548 18.3873 57.5224 18.2438 56.8623 17.9568C56.2021 17.6697 55.6568 17.2966 55.2263 16.8374C54.7957 16.3495 54.48 15.8041 54.2791 15.1727C54.0495 14.5413 53.9634 13.8811 53.9634 13.1923Z" fill="white"/>
<path d="M69.2327 18.3873C68.4004 18.3873 67.7116 18.2725 67.0801 18.0142C66.4774 17.7559 65.9895 17.4114 65.5877 16.9809C65.1858 16.5217 64.8988 16.0051 64.6979 15.4023C64.497 14.7996 64.4109 14.1107 64.4109 13.3645C64.4109 12.4461 64.5544 11.4989 64.8701 10.5804C65.1571 9.66199 65.6163 8.80095 66.2191 8.08341C66.7931 7.33717 67.5394 6.73444 68.3717 6.24651C69.2327 5.78728 70.2086 5.52897 71.2993 5.52897C72.1029 5.52897 72.8205 5.64377 73.4232 5.90209C74.0259 6.1604 74.5425 6.50482 74.9444 6.93535C75.3462 7.39457 75.6332 7.9112 75.8341 8.51394C76.035 9.11667 76.1498 9.80551 76.1498 10.5518C76.1498 11.4702 76.0063 12.4173 75.7193 13.3358C75.4323 14.2543 75.0018 15.0866 74.4277 15.8328C73.8537 16.5791 73.1362 17.1818 72.2751 17.6697C71.3567 18.1577 70.3808 18.3873 69.2327 18.3873ZM70.9548 8.42782C70.4382 8.42782 70.0077 8.57133 69.6059 8.85835C69.2041 9.14536 68.8883 9.51849 68.63 9.97772C68.3717 10.4369 68.1708 10.9249 68.0273 11.4415C67.8838 11.9868 67.8264 12.4748 67.8264 12.9627C67.8264 13.7376 67.9412 14.3404 68.1995 14.7709C68.4578 15.2014 68.8883 15.431 69.5485 15.431C70.0651 15.431 70.4956 15.2875 70.8974 15.0005C71.2706 14.7135 71.615 14.3404 71.8733 13.8811C72.1316 13.4219 72.3325 12.934 72.476 12.4174C72.6195 11.872 72.6769 11.3841 72.6769 10.8962C72.6769 10.1212 72.5621 9.51849 72.3038 9.08797C72.0455 8.65744 71.615 8.42782 70.9548 8.42782Z" fill="white"/>
<path d="M79.8526 18.0717H76.4084L79.3072 5.84481H82.7801L79.8526 18.0717ZM81.546 4.35233C81.058 4.35233 80.6275 4.20882 80.2544 3.92181C79.8813 3.63479 79.6803 3.20427 79.6803 2.60153C79.6803 2.28581 79.7378 1.97009 79.8813 1.68308C80.0248 1.39606 80.197 1.13775 80.3979 0.936843C80.6275 0.735931 80.8571 0.563718 81.1441 0.448912C81.4311 0.334105 81.7469 0.2767 82.0626 0.2767C82.5505 0.2767 82.981 0.420208 83.3542 0.707224C83.7273 0.99424 83.9282 1.42477 83.9282 2.0275C83.9282 2.34322 83.8708 2.65894 83.7273 2.94595C83.5838 3.23297 83.4116 3.49128 83.2106 3.69219C82.981 3.8931 82.7514 4.06531 82.4644 4.18012C82.1774 4.29493 81.8617 4.35233 81.546 4.35233Z" fill="white"/>
<path d="M85.2768 6.38985C85.5351 6.30375 85.8221 6.21764 86.1378 6.13153C86.4536 6.04543 86.798 5.93062 87.1998 5.84452C87.6016 5.75841 88.0321 5.70101 88.5201 5.64361C89.008 5.58621 89.5533 5.5575 90.1848 5.5575C91.993 5.5575 93.2558 6.07413 93.9447 7.13609C94.6335 8.19805 94.7483 9.63313 94.3178 11.47L92.7392 18.0714H89.2663L90.7875 11.6135C90.8736 11.2117 90.9597 10.8099 91.0171 10.4368C91.0745 10.0637 91.0745 9.71923 91.0171 9.43222C90.9597 9.1452 90.8162 8.91559 90.5866 8.74338C90.357 8.57117 90.0125 8.48507 89.5533 8.48507C89.0941 8.48507 88.6349 8.54247 88.1756 8.62858L85.9082 18.1001H82.4353L85.2768 6.38985Z" fill="white"/>
</svg>
