<svg width="128" height="44" viewBox="0 0 128 44" fill="none" xmlns="http://www.w3.org/2000/svg">
<mask id="path-1-outside-1_154_943" maskUnits="userSpaceOnUse" x="31.3623" y="12.6113" width="97" height="18" fill="black">
<rect fill="white" x="31.3623" y="12.6113" width="97" height="18"/>
<path d="M40.9027 25.372C40.9027 25.5809 40.7279 25.7512 40.519 25.7512H33.1298C33.3155 27.5772 34.6881 29.2422 36.6209 29.2422C37.2192 29.2685 37.814 29.1387 38.3468 28.8654C38.8797 28.5922 39.3323 28.1851 39.6601 27.6839C39.7685 27.5385 39.9278 27.4456 40.1306 27.5338C40.1849 27.5575 40.2325 27.5944 40.269 27.6412C40.3055 27.6879 40.3297 27.7431 40.3395 27.8015C40.3596 27.9222 40.324 27.9903 40.293 28.0584C39.5503 29.3552 38.0693 29.9928 36.6178 29.9928C34.1326 29.9928 32.3623 27.769 32.3623 25.3906C32.3623 23.0122 34.1341 20.7885 36.6178 20.7885C39.1015 20.7885 40.8996 23.0013 40.9043 25.3767M40.1306 25.0177C39.9696 23.1917 38.5723 21.5266 36.6395 21.5266C34.7067 21.5266 33.3326 23.1917 33.1484 25.0177H40.1306ZM49.8888 20.968C50.1024 20.968 50.2571 21.1537 50.2571 21.3363C50.2571 21.5498 50.0962 21.7045 49.8888 21.7045H47.9081V29.4774C47.9081 29.6631 47.7472 29.8457 47.5398 29.8457C47.3324 29.8457 47.1715 29.66 47.1715 29.4774V21.7045H45.2681C45.0546 21.7045 44.8998 21.5436 44.8998 21.3363C44.8998 21.1506 45.0608 20.968 45.2681 20.968H47.1715V18.1175C47.1715 17.938 47.2922 17.7725 47.481 17.743C47.7286 17.7044 47.922 17.8746 47.922 18.1067V20.9618L49.8888 20.968ZM61.959 24.7252V29.4341C61.959 29.6477 61.7734 29.8024 61.5908 29.8024C61.3772 29.8024 61.2225 29.6415 61.2225 29.4341V24.7407C61.2225 23.153 60.3249 21.5653 58.5515 21.5653C56.2799 21.5653 55.2988 23.5507 55.4303 25.5856C55.4303 25.6397 55.4551 25.8765 55.4551 25.9013V29.4357C55.4551 29.6152 55.3344 29.7808 55.1456 29.8102C54.898 29.8488 54.7045 29.6786 54.7045 29.4465V13.9796C54.7045 13.7939 54.8655 13.6113 55.0728 13.6113C55.2802 13.6113 55.4411 13.797 55.4411 13.9796V22.7336C56.0601 21.5978 57.213 20.8302 58.533 20.8302C60.7025 20.8302 61.9467 22.7336 61.9467 24.7453M75.196 25.3952C75.196 25.6042 75.0212 25.7744 74.8123 25.7744H67.4185C67.6042 27.6004 68.9768 29.2654 70.9096 29.2654C71.5078 29.2917 72.1026 29.1619 72.6355 28.8887C73.1683 28.6154 73.6209 28.2083 73.9488 27.7072C74.0571 27.5617 74.2165 27.4688 74.4192 27.557C74.4736 27.5807 74.5212 27.6176 74.5576 27.6644C74.5941 27.7111 74.6184 27.7663 74.6281 27.8248C74.6482 27.9455 74.6126 28.0135 74.5817 28.0816C73.8389 29.3784 72.358 30.016 70.9065 30.016C68.4212 30.016 66.651 27.7923 66.651 25.4138C66.651 23.0354 68.4228 20.8117 70.9065 20.8117C73.3901 20.8117 75.1929 23.0245 75.1976 25.3999M74.4006 25.0409C74.2397 23.2149 72.8423 21.5498 70.9096 21.5498C68.9768 21.5498 67.6026 23.2149 67.4185 25.0409H74.4006ZM84.2827 21.3363C84.2827 21.5746 84.1512 21.7046 83.9376 21.734C81.7681 22.0496 80.7917 23.823 80.7917 25.8842V29.4186C80.7917 29.5981 80.6709 29.7637 80.4822 29.7931C80.2346 29.8318 80.0411 29.6616 80.0411 29.4295V21.3749C80.0411 21.1954 80.1618 21.0299 80.3506 21.0005C80.5982 20.9618 80.7917 21.132 80.7917 21.3641V23.0044C81.3983 21.9754 82.6177 20.9927 83.8835 20.9927C84.0692 20.9881 84.2812 21.1243 84.2812 21.3332M96.4179 25.3968C96.4179 25.6057 96.2431 25.7759 96.0341 25.7759H88.645C88.8307 27.6019 90.2033 29.267 92.1361 29.267C92.7343 29.2933 93.3291 29.1634 93.862 28.8902C94.3949 28.617 94.8475 28.2098 95.1753 27.7087C95.2836 27.5632 95.443 27.4704 95.6457 27.5586C95.7001 27.5823 95.7477 27.6192 95.7842 27.6659C95.8207 27.7127 95.8449 27.7678 95.8546 27.8263C95.8748 27.947 95.8392 28.0151 95.8082 28.0832C95.0654 29.38 93.5845 30.0175 92.133 30.0175C89.6478 30.0175 87.8775 27.7938 87.8775 25.4154C87.8775 23.0369 89.6493 20.8132 92.133 20.8132C94.6167 20.8132 96.4148 23.0261 96.4195 25.4014M95.6457 25.0424C95.4848 23.2164 94.0874 21.5514 92.1547 21.5514C90.2219 21.5514 88.8477 23.2164 88.6636 25.0424H95.6457ZM108.366 21.4306V29.5038C108.366 29.7173 108.18 29.872 107.998 29.872C107.784 29.872 107.629 29.7111 107.629 29.5038V27.9563C107.023 29.1741 105.935 30.0454 104.561 30.0454C102.366 30.0454 101.147 28.142 101.147 26.1303V21.3951C101.147 21.2094 101.308 21.0268 101.515 21.0268C101.723 21.0268 101.884 21.2125 101.884 21.3951V26.1303C101.884 27.718 102.781 29.3057 104.554 29.3057C107.04 29.3057 107.623 26.9798 107.623 24.4126V21.3827C107.623 21.1691 107.837 20.9494 108.098 21.0268C108.259 21.0809 108.366 21.2357 108.366 21.4012M127.059 24.6927V29.4279C127.059 29.6415 126.873 29.7962 126.691 29.7962C126.477 29.7962 126.323 29.6353 126.323 29.4279V24.6927C126.323 23.105 125.425 21.5467 123.652 21.5467C121.428 21.5467 120.583 23.9252 120.583 25.7759V29.4279C120.583 29.6415 120.397 29.7962 120.215 29.7962C120.001 29.7962 119.846 29.6353 119.846 29.4279V24.6927C119.846 23.105 118.949 21.5467 117.176 21.5467C114.927 21.5467 114 23.3186 114.084 25.6738C114.084 25.7279 114.108 25.8347 114.084 25.8595V29.4186C114.084 29.5981 113.963 29.7637 113.782 29.7931C113.534 29.8318 113.341 29.6616 113.341 29.4295V21.3363C113.341 21.1567 113.462 20.9912 113.65 20.9618C113.898 20.9231 114.091 21.0933 114.091 21.3254V22.6748C114.71 21.539 115.863 20.7962 117.183 20.7962C118.689 20.7962 119.854 21.7479 120.329 23.1514C120.936 21.7773 122.124 20.7962 123.659 20.7962C125.829 20.7962 127.073 22.6531 127.073 24.6648"/>
</mask>
<path d="M40.9027 25.372C40.9027 25.5809 40.7279 25.7512 40.519 25.7512H33.1298C33.3155 27.5772 34.6881 29.2422 36.6209 29.2422C37.2192 29.2685 37.814 29.1387 38.3468 28.8654C38.8797 28.5922 39.3323 28.1851 39.6601 27.6839C39.7685 27.5385 39.9278 27.4456 40.1306 27.5338C40.1849 27.5575 40.2325 27.5944 40.269 27.6412C40.3055 27.6879 40.3297 27.7431 40.3395 27.8015C40.3596 27.9222 40.324 27.9903 40.293 28.0584C39.5503 29.3552 38.0693 29.9928 36.6178 29.9928C34.1326 29.9928 32.3623 27.769 32.3623 25.3906C32.3623 23.0122 34.1341 20.7885 36.6178 20.7885C39.1015 20.7885 40.8996 23.0013 40.9043 25.3767M40.1306 25.0177C39.9696 23.1917 38.5723 21.5266 36.6395 21.5266C34.7067 21.5266 33.3326 23.1917 33.1484 25.0177H40.1306ZM49.8888 20.968C50.1024 20.968 50.2571 21.1537 50.2571 21.3363C50.2571 21.5498 50.0962 21.7045 49.8888 21.7045H47.9081V29.4774C47.9081 29.6631 47.7472 29.8457 47.5398 29.8457C47.3324 29.8457 47.1715 29.66 47.1715 29.4774V21.7045H45.2681C45.0546 21.7045 44.8998 21.5436 44.8998 21.3363C44.8998 21.1506 45.0608 20.968 45.2681 20.968H47.1715V18.1175C47.1715 17.938 47.2922 17.7725 47.481 17.743C47.7286 17.7044 47.922 17.8746 47.922 18.1067V20.9618L49.8888 20.968ZM61.959 24.7252V29.4341C61.959 29.6477 61.7734 29.8024 61.5908 29.8024C61.3772 29.8024 61.2225 29.6415 61.2225 29.4341V24.7407C61.2225 23.153 60.3249 21.5653 58.5515 21.5653C56.2799 21.5653 55.2988 23.5507 55.4303 25.5856C55.4303 25.6397 55.4551 25.8765 55.4551 25.9013V29.4357C55.4551 29.6152 55.3344 29.7808 55.1456 29.8102C54.898 29.8488 54.7045 29.6786 54.7045 29.4465V13.9796C54.7045 13.7939 54.8655 13.6113 55.0728 13.6113C55.2802 13.6113 55.4411 13.797 55.4411 13.9796V22.7336C56.0601 21.5978 57.213 20.8302 58.533 20.8302C60.7025 20.8302 61.9467 22.7336 61.9467 24.7453M75.196 25.3952C75.196 25.6042 75.0212 25.7744 74.8123 25.7744H67.4185C67.6042 27.6004 68.9768 29.2654 70.9096 29.2654C71.5078 29.2917 72.1026 29.1619 72.6355 28.8887C73.1683 28.6154 73.6209 28.2083 73.9488 27.7072C74.0571 27.5617 74.2165 27.4688 74.4192 27.557C74.4736 27.5807 74.5212 27.6176 74.5576 27.6644C74.5941 27.7111 74.6184 27.7663 74.6281 27.8248C74.6482 27.9455 74.6126 28.0135 74.5817 28.0816C73.8389 29.3784 72.358 30.016 70.9065 30.016C68.4212 30.016 66.651 27.7923 66.651 25.4138C66.651 23.0354 68.4228 20.8117 70.9065 20.8117C73.3901 20.8117 75.1929 23.0245 75.1976 25.3999M74.4006 25.0409C74.2397 23.2149 72.8423 21.5498 70.9096 21.5498C68.9768 21.5498 67.6026 23.2149 67.4185 25.0409H74.4006ZM84.2827 21.3363C84.2827 21.5746 84.1512 21.7046 83.9376 21.734C81.7681 22.0496 80.7917 23.823 80.7917 25.8842V29.4186C80.7917 29.5981 80.6709 29.7637 80.4822 29.7931C80.2346 29.8318 80.0411 29.6616 80.0411 29.4295V21.3749C80.0411 21.1954 80.1618 21.0299 80.3506 21.0005C80.5982 20.9618 80.7917 21.132 80.7917 21.3641V23.0044C81.3983 21.9754 82.6177 20.9927 83.8835 20.9927C84.0692 20.9881 84.2812 21.1243 84.2812 21.3332M96.4179 25.3968C96.4179 25.6057 96.2431 25.7759 96.0341 25.7759H88.645C88.8307 27.6019 90.2033 29.267 92.1361 29.267C92.7343 29.2933 93.3291 29.1634 93.862 28.8902C94.3949 28.617 94.8475 28.2098 95.1753 27.7087C95.2836 27.5632 95.443 27.4704 95.6457 27.5586C95.7001 27.5823 95.7477 27.6192 95.7842 27.6659C95.8207 27.7127 95.8449 27.7678 95.8546 27.8263C95.8748 27.947 95.8392 28.0151 95.8082 28.0832C95.0654 29.38 93.5845 30.0175 92.133 30.0175C89.6478 30.0175 87.8775 27.7938 87.8775 25.4154C87.8775 23.0369 89.6493 20.8132 92.133 20.8132C94.6167 20.8132 96.4148 23.0261 96.4195 25.4014M95.6457 25.0424C95.4848 23.2164 94.0874 21.5514 92.1547 21.5514C90.2219 21.5514 88.8477 23.2164 88.6636 25.0424H95.6457ZM108.366 21.4306V29.5038C108.366 29.7173 108.18 29.872 107.998 29.872C107.784 29.872 107.629 29.7111 107.629 29.5038V27.9563C107.023 29.1741 105.935 30.0454 104.561 30.0454C102.366 30.0454 101.147 28.142 101.147 26.1303V21.3951C101.147 21.2094 101.308 21.0268 101.515 21.0268C101.723 21.0268 101.884 21.2125 101.884 21.3951V26.1303C101.884 27.718 102.781 29.3057 104.554 29.3057C107.04 29.3057 107.623 26.9798 107.623 24.4126V21.3827C107.623 21.1691 107.837 20.9494 108.098 21.0268C108.259 21.0809 108.366 21.2357 108.366 21.4012M127.059 24.6927V29.4279C127.059 29.6415 126.873 29.7962 126.691 29.7962C126.477 29.7962 126.323 29.6353 126.323 29.4279V24.6927C126.323 23.105 125.425 21.5467 123.652 21.5467C121.428 21.5467 120.583 23.9252 120.583 25.7759V29.4279C120.583 29.6415 120.397 29.7962 120.215 29.7962C120.001 29.7962 119.846 29.6353 119.846 29.4279V24.6927C119.846 23.105 118.949 21.5467 117.176 21.5467C114.927 21.5467 114 23.3186 114.084 25.6738C114.084 25.7279 114.108 25.8347 114.084 25.8595V29.4186C114.084 29.5981 113.963 29.7637 113.782 29.7931C113.534 29.8318 113.341 29.6616 113.341 29.4295V21.3363C113.341 21.1567 113.462 20.9912 113.65 20.9618C113.898 20.9231 114.091 21.0933 114.091 21.3254V22.6748C114.71 21.539 115.863 20.7962 117.183 20.7962C118.689 20.7962 119.854 21.7479 120.329 23.1514C120.936 21.7773 122.124 20.7962 123.659 20.7962C125.829 20.7962 127.073 22.6531 127.073 24.6648" fill="white"/>
<path d="M33.1298 25.7512V25.3512H32.6871L32.7319 25.7916L33.1298 25.7512ZM36.6209 29.2422L36.6385 28.8426L36.6297 28.8422H36.6209V29.2422ZM39.6601 27.6839L39.3393 27.445L39.3321 27.4548L39.3254 27.465L39.6601 27.6839ZM40.1306 27.5338L40.2903 27.1671L40.2902 27.1671L40.1306 27.5338ZM40.3395 27.8015L40.734 27.7358L40.734 27.7357L40.3395 27.8015ZM40.293 28.0584L40.6401 28.2572L40.6494 28.241L40.6572 28.2239L40.293 28.0584ZM40.1306 25.0177V25.4177H40.5674L40.529 24.9825L40.1306 25.0177ZM33.1484 25.0177L32.7504 24.9775L32.706 25.4177H33.1484V25.0177ZM49.8888 20.968L49.8876 21.368H49.8888V20.968ZM47.9081 21.7045V21.3045H47.5081V21.7045H47.9081ZM47.1715 21.7045H47.5715V21.3045H47.1715V21.7045ZM47.1715 20.968V21.368H47.5715V20.968H47.1715ZM47.481 17.743L47.5426 18.1383L47.5428 18.1383L47.481 17.743ZM47.922 20.9618H47.522V21.3605L47.9208 21.3618L47.922 20.9618ZM55.4303 25.5856H55.8303V25.5727L55.8295 25.5598L55.4303 25.5856ZM55.1456 29.8102L55.084 29.4149L55.0838 29.4149L55.1456 29.8102ZM55.4411 22.7336H55.0411L55.7924 22.925L55.4411 22.7336ZM67.4185 25.7744V25.3744H66.9757L67.0205 25.8148L67.4185 25.7744ZM70.9096 29.2654L70.9271 28.8658L70.9183 28.8654H70.9096V29.2654ZM73.9488 27.7072L73.628 27.4682L73.6207 27.478L73.614 27.4882L73.9488 27.7072ZM74.4192 27.557L74.579 27.1903L74.5788 27.1903L74.4192 27.557ZM74.6281 27.8248L75.0227 27.759L75.0227 27.7589L74.6281 27.8248ZM74.5817 28.0816L74.9288 28.2804L74.9381 28.2642L74.9458 28.2472L74.5817 28.0816ZM74.4006 25.0409V25.4409H74.8374L74.7991 25.0058L74.4006 25.0409ZM67.4185 25.0409L67.0205 25.0007L66.9761 25.4409H67.4185V25.0409ZM83.9376 21.734L83.8831 21.3377L83.88 21.3381L83.9376 21.734ZM80.4822 29.7931L80.4206 29.3979L80.4204 29.3979L80.4822 29.7931ZM80.3506 21.0005L80.4122 21.3957L80.4124 21.3957L80.3506 21.0005ZM80.7917 23.0044H80.3917V24.4707L81.1362 23.2075L80.7917 23.0044ZM83.8835 20.9927V21.3928L83.8935 21.3926L83.8835 20.9927ZM88.645 25.7759V25.3759H88.2023L88.2471 25.8164L88.645 25.7759ZM92.1361 29.267L92.1536 28.8674L92.1449 28.867H92.1361V29.267ZM95.1753 27.7087L94.8545 27.4698L94.8472 27.4795L94.8406 27.4897L95.1753 27.7087ZM95.6457 27.5586L95.8055 27.1919L95.8053 27.1918L95.6457 27.5586ZM95.8546 27.8263L96.2492 27.7605L96.2492 27.7605L95.8546 27.8263ZM95.8082 28.0832L96.1553 28.282L96.1646 28.2657L96.1724 28.2487L95.8082 28.0832ZM95.6457 25.0424V25.4424H96.0825L96.0442 25.0073L95.6457 25.0424ZM88.6636 25.0424L88.2656 25.0023L88.2212 25.4424H88.6636V25.0424ZM107.629 27.9563H108.029L107.271 27.778L107.629 27.9563ZM108.098 21.0268L108.226 20.6477L108.219 20.6453L108.212 20.6432L108.098 21.0268ZM114.084 25.6738H114.484V25.6667L114.483 25.6596L114.084 25.6738ZM114.084 25.8595L113.801 25.5766L113.684 25.6938V25.8595H114.084ZM113.782 29.7931L113.844 30.1883L113.846 30.188L113.782 29.7931ZM113.65 20.9618L113.712 21.357L113.712 21.357L113.65 20.9618ZM114.091 22.6748H113.691L114.443 22.8662L114.091 22.6748ZM120.329 23.1514L119.95 23.2797L120.28 24.2535L120.695 23.313L120.329 23.1514ZM40.5027 25.372C40.5027 25.3679 40.5037 25.3637 40.5052 25.3603C40.5065 25.3572 40.5079 25.3555 40.5087 25.3547C40.5099 25.3535 40.5133 25.3512 40.519 25.3512V26.1512C40.9424 26.1512 41.3027 25.8082 41.3027 25.372H40.5027ZM40.519 25.3512H33.1298V26.1512H40.519V25.3512ZM32.7319 25.7916C32.9323 27.7623 34.4281 29.6422 36.6209 29.6422V28.8422C34.9482 28.8422 33.6988 27.3921 33.5278 25.7107L32.7319 25.7916ZM36.6034 29.6418C37.271 29.6712 37.9347 29.5263 38.5293 29.2214L38.1643 28.5095C37.6932 28.7511 37.1674 28.8659 36.6385 28.8426L36.6034 29.6418ZM38.5293 29.2214C39.124 28.9165 39.629 28.4621 39.9949 27.9029L39.3254 27.465C39.0356 27.908 38.6354 28.268 38.1643 28.5095L38.5293 29.2214ZM39.9809 27.9228C39.9925 27.9073 40.0016 27.8984 40.0069 27.894C40.0119 27.8898 40.0111 27.8917 40.0039 27.8945C40.0003 27.8959 39.9955 27.8973 39.99 27.8983C39.9844 27.8992 39.979 27.8996 39.9741 27.8994C39.9637 27.8991 39.962 27.8967 39.971 27.9006L40.2902 27.1671C40.098 27.0834 39.8984 27.0777 39.716 27.1481C39.5452 27.2139 39.4224 27.3335 39.3393 27.445L39.9809 27.9228ZM39.9708 27.9005C39.9641 27.8976 39.9582 27.893 39.9537 27.8873L40.5843 27.3951C40.5069 27.2958 40.4058 27.2174 40.2903 27.1671L39.9708 27.9005ZM39.9537 27.8873C39.9491 27.8815 39.9461 27.8746 39.9449 27.8674L40.734 27.7357C40.7133 27.6115 40.6618 27.4944 40.5843 27.3951L39.9537 27.8873ZM39.9449 27.8673C39.9457 27.8722 39.9452 27.8716 39.9454 27.8668C39.9456 27.8617 39.9464 27.8563 39.9476 27.8518C39.9486 27.8479 39.949 27.8476 39.9465 27.8538C39.9452 27.857 39.9433 27.8613 39.9403 27.8679C39.9388 27.8713 39.9372 27.8748 39.9352 27.879C39.9334 27.883 39.9311 27.888 39.9289 27.8929L40.6572 28.2239C40.6891 28.1538 40.7758 27.9866 40.734 27.7358L39.9449 27.8673ZM39.946 27.8596C39.2926 29.0003 37.9666 29.5928 36.6178 29.5928V30.3928C38.1721 30.3928 39.8079 29.7101 40.6401 28.2572L39.946 27.8596ZM36.6178 29.5928C34.3989 29.5928 32.7623 27.5965 32.7623 25.3906H31.9623C31.9623 27.9416 33.8663 30.3928 36.6178 30.3928V29.5928ZM32.7623 25.3906C32.7623 23.1849 34.4004 21.1885 36.6178 21.1885V20.3885C33.8679 20.3885 31.9623 22.8395 31.9623 25.3906H32.7623ZM36.6178 21.1885C38.8395 21.1885 40.5 23.1789 40.5043 25.3775L41.3043 25.3759C41.2993 22.8237 39.3635 20.3885 36.6178 20.3885V21.1885ZM40.529 24.9825C40.3545 23.0028 38.8286 21.1266 36.6395 21.1266V21.9266C38.3159 21.9266 39.5847 23.3805 39.7321 25.0528L40.529 24.9825ZM36.6395 21.1266C34.4469 21.1266 32.9492 23.0063 32.7504 24.9775L33.5464 25.0578C33.7159 23.377 34.9665 21.9266 36.6395 21.9266V21.1266ZM33.1484 25.4177H40.1306V24.6177H33.1484V25.4177ZM49.8888 21.368C49.8833 21.368 49.8766 21.3666 49.8708 21.3639C49.8657 21.3616 49.8631 21.3591 49.8622 21.3582C49.8615 21.3575 49.8609 21.3566 49.8601 21.3547C49.8593 21.3528 49.8571 21.3468 49.8571 21.3363H50.6571C50.6571 20.9547 50.3447 20.568 49.8888 20.568V21.368ZM49.8571 21.3363C49.8571 21.339 49.8567 21.3368 49.8589 21.3317C49.8609 21.3266 49.8645 21.321 49.8696 21.316C49.8746 21.311 49.8799 21.3078 49.8843 21.3061C49.8887 21.3043 49.8906 21.3045 49.8888 21.3045V22.1045C50.3127 22.1045 50.6571 21.7751 50.6571 21.3363H49.8571ZM49.8888 21.3045H47.9081V22.1045H49.8888V21.3045ZM47.5081 21.7045V29.4774H48.3081V21.7045H47.5081ZM47.5081 29.4774C47.5081 29.4662 47.5105 29.4595 47.5114 29.4572C47.5124 29.455 47.513 29.4543 47.5133 29.4541C47.5134 29.454 47.5221 29.4457 47.5398 29.4457V30.2457C47.9831 30.2457 48.3081 29.8688 48.3081 29.4774H47.5081ZM47.5398 29.4457C47.5486 29.4457 47.5562 29.4479 47.5613 29.4502C47.5637 29.4513 47.5652 29.4522 47.566 29.4528C47.5668 29.4534 47.5671 29.4538 47.5671 29.4538C47.5671 29.4538 47.5671 29.4537 47.5671 29.4538C47.5672 29.4538 47.5675 29.4543 47.568 29.4555C47.5688 29.4574 47.5715 29.4646 47.5715 29.4774H46.7715C46.7715 29.8635 47.0945 30.2457 47.5398 30.2457V29.4457ZM47.5715 29.4774V21.7045H46.7715V29.4774H47.5715ZM47.1715 21.3045H45.2681V22.1045H47.1715V21.3045ZM45.2681 21.3045C45.2654 21.3045 45.2676 21.3041 45.2727 21.3063C45.2777 21.3083 45.2834 21.3119 45.2884 21.317C45.2934 21.322 45.2966 21.3273 45.2983 21.3317C45.3001 21.3361 45.2998 21.3381 45.2998 21.3363H44.4998C44.4998 21.7601 44.8292 22.1045 45.2681 22.1045V21.3045ZM45.2998 21.3363C45.2998 21.3475 45.2975 21.3542 45.2965 21.3565C45.2955 21.3587 45.2949 21.3594 45.2947 21.3596C45.2945 21.3597 45.2858 21.368 45.2681 21.368V20.568C44.8249 20.568 44.4998 20.9449 44.4998 21.3363H45.2998ZM45.2681 21.368H47.1715V20.568H45.2681V21.368ZM47.5715 20.968V18.1175H46.7715V20.968H47.5715ZM47.5715 18.1175C47.5715 18.1165 47.5721 18.1185 47.5683 18.1232C47.5662 18.126 47.5625 18.1295 47.5571 18.1327C47.5514 18.1361 47.546 18.1377 47.5426 18.1383L47.4194 17.3478C47.0117 17.4113 46.7715 17.7663 46.7715 18.1175H47.5715ZM47.5428 18.1383C47.5521 18.1368 47.5543 18.1382 47.5511 18.1374C47.548 18.1365 47.5426 18.1343 47.5368 18.1294C47.5311 18.1246 47.5269 18.1187 47.5243 18.1132C47.5217 18.1076 47.522 18.1047 47.522 18.1067H48.322C48.322 17.6222 47.9026 17.2723 47.4193 17.3478L47.5428 18.1383ZM47.522 18.1067V20.9618H48.322V18.1067H47.522ZM47.9208 21.3618L49.8876 21.368L49.8901 20.568L47.9233 20.5618L47.9208 21.3618ZM61.559 24.7252V29.4341H62.359V24.7252H61.559ZM61.559 29.4341C61.559 29.4285 61.5604 29.4219 61.5631 29.4161C61.5654 29.4109 61.5679 29.4083 61.5688 29.4075C61.5695 29.4068 61.5704 29.4061 61.5723 29.4053C61.5742 29.4046 61.5802 29.4024 61.5908 29.4024V30.2024C61.9723 30.2024 62.359 29.8899 62.359 29.4341H61.559ZM61.5908 29.4024C61.588 29.4024 61.5902 29.402 61.5953 29.4041C61.6004 29.4062 61.606 29.4098 61.611 29.4149C61.616 29.4199 61.6192 29.4252 61.6209 29.4295C61.6227 29.434 61.6225 29.4359 61.6225 29.4341H60.8225C60.8225 29.8579 61.1519 30.2024 61.5908 30.2024V29.4024ZM61.6225 29.4341V24.7407H60.8225V29.4341H61.6225ZM61.6225 24.7407C61.6225 23.8777 61.3796 22.995 60.8721 22.3178C60.3564 21.6294 59.5737 21.1653 58.5515 21.1653V21.9653C59.3028 21.9653 59.8555 22.295 60.2319 22.7974C60.6166 23.3109 60.8225 24.016 60.8225 24.7407H61.6225ZM58.5515 21.1653C57.2815 21.1653 56.3456 21.7286 55.7594 22.5867C55.1841 23.429 54.9612 24.529 55.0311 25.6114L55.8295 25.5598C55.7679 24.6073 55.9698 23.6971 56.42 23.038C56.8594 22.3947 57.5499 21.9653 58.5515 21.9653V21.1653ZM55.0303 25.5856C55.0303 25.6171 55.0332 25.6575 55.0354 25.6849C55.0379 25.7178 55.0412 25.7554 55.0443 25.7902C55.0475 25.8263 55.0504 25.8578 55.0527 25.884C55.0538 25.8968 55.0546 25.9064 55.0551 25.913C55.0561 25.9258 55.0551 25.9162 55.0551 25.9013H55.8551C55.8551 25.8801 55.8532 25.8577 55.8529 25.8526C55.852 25.8413 55.8509 25.8279 55.8497 25.8142C55.8473 25.7873 55.844 25.7516 55.8411 25.7187C55.838 25.6844 55.8351 25.6511 55.833 25.6236C55.8305 25.5907 55.8303 25.5812 55.8303 25.5856H55.0303ZM55.0551 25.9013V29.4357H55.8551V25.9013H55.0551ZM55.0551 29.4357C55.0551 29.4367 55.0545 29.4347 55.0582 29.43C55.0604 29.4272 55.0641 29.4237 55.0695 29.4205C55.0752 29.4171 55.0806 29.4155 55.084 29.4149L55.2071 30.2054C55.6148 30.1419 55.8551 29.7869 55.8551 29.4357H55.0551ZM55.0838 29.4149C55.0744 29.4164 55.0722 29.415 55.0754 29.4158C55.0785 29.4167 55.084 29.4189 55.0898 29.4238C55.0955 29.4286 55.0997 29.4345 55.1023 29.44C55.1048 29.4456 55.1045 29.4485 55.1045 29.4465H54.3045C54.3045 29.931 54.724 30.2809 55.2073 30.2054L55.0838 29.4149ZM55.1045 29.4465V13.9796H54.3045V29.4465H55.1045ZM55.1045 13.9796C55.1045 13.9909 55.1022 13.9976 55.1012 13.9999C55.1003 14.0021 55.0996 14.0027 55.0994 14.003C55.0993 14.0031 55.0906 14.0113 55.0728 14.0113V13.2113C54.6296 13.2113 54.3045 13.5883 54.3045 13.9796H55.1045ZM55.0728 14.0113C55.0641 14.0113 55.0564 14.0092 55.0513 14.0069C55.049 14.0058 55.0475 14.0048 55.0467 14.0042C55.0459 14.0037 55.0455 14.0033 55.0455 14.0033C55.0455 14.0033 55.0455 14.0033 55.0455 14.0033C55.0455 14.0033 55.0452 14.0028 55.0447 14.0016C55.0439 13.9997 55.0411 13.9925 55.0411 13.9796H55.8411C55.8411 13.5935 55.5182 13.2113 55.0728 13.2113V14.0113ZM55.0411 13.9796V22.7336H55.8411V13.9796H55.0411ZM55.7924 22.925C56.3491 21.9034 57.375 21.2302 58.533 21.2302V20.4302C57.0509 20.4302 55.7712 21.2921 55.0899 22.5422L55.7924 22.925ZM58.533 21.2302C60.4031 21.2302 61.5467 22.8669 61.5467 24.7453H62.3467C62.3467 22.6003 61.0019 20.4302 58.533 20.4302V21.2302ZM74.796 25.3952C74.796 25.3911 74.797 25.3869 74.7985 25.3835C74.7998 25.3804 74.8012 25.3787 74.802 25.3779C74.8032 25.3768 74.8066 25.3744 74.8123 25.3744V26.1744C75.2357 26.1744 75.596 25.8314 75.596 25.3952H74.796ZM74.8123 25.3744H67.4185V26.1744H74.8123V25.3744ZM67.0205 25.8148C67.2209 27.7855 68.7167 29.6654 70.9096 29.6654V28.8654C69.2368 28.8654 67.9874 27.4153 67.8164 25.7339L67.0205 25.8148ZM70.892 29.6651C71.5596 29.6944 72.2233 29.5495 72.818 29.2446L72.453 28.5327C71.9819 28.7743 71.456 28.8891 70.9271 28.8658L70.892 29.6651ZM72.818 29.2446C73.4126 28.9397 73.9177 28.4853 74.2835 27.9261L73.614 27.4882C73.3242 27.9312 72.9241 28.2912 72.453 28.5327L72.818 29.2446ZM74.2696 27.9461C74.2811 27.9306 74.2903 27.9216 74.2955 27.9172C74.3006 27.913 74.2998 27.9149 74.2925 27.9177C74.2889 27.9191 74.2842 27.9205 74.2786 27.9215C74.273 27.9224 74.2676 27.9228 74.2628 27.9226C74.2524 27.9223 74.2507 27.9199 74.2596 27.9238L74.5788 27.1903C74.3866 27.1067 74.187 27.1009 74.0046 27.1713C73.8339 27.2371 73.7111 27.3567 73.628 27.4682L74.2696 27.9461ZM74.2594 27.9238C74.2527 27.9208 74.2468 27.9163 74.2423 27.9105L74.873 27.4183C74.7955 27.319 74.6944 27.2406 74.579 27.1903L74.2594 27.9238ZM74.2423 27.9105C74.2378 27.9047 74.2348 27.8978 74.2336 27.8906L75.0227 27.7589C75.0019 27.6347 74.9505 27.5176 74.873 27.4183L74.2423 27.9105ZM74.2336 27.8905C74.2344 27.8955 74.2338 27.8948 74.234 27.89C74.2342 27.8849 74.2351 27.8795 74.2362 27.875C74.2372 27.8712 74.2377 27.8708 74.2352 27.877C74.2338 27.8802 74.2319 27.8845 74.2289 27.8912C74.2274 27.8945 74.2258 27.898 74.2239 27.9022C74.2221 27.9062 74.2198 27.9112 74.2175 27.9161L74.9458 28.2472C74.9777 28.177 75.0645 28.0098 75.0227 27.759L74.2336 27.8905ZM74.2346 27.8828C73.5812 29.0235 72.2553 29.616 70.9065 29.616V30.416C72.4607 30.416 74.0966 29.7333 74.9288 28.2804L74.2346 27.8828ZM70.9065 29.616C68.6876 29.616 67.0509 27.6197 67.0509 25.4138H66.2509C66.2509 27.9649 68.1549 30.416 70.9065 30.416V29.616ZM67.0509 25.4138C67.0509 23.2081 68.689 21.2117 70.9065 21.2117V20.4117C68.1566 20.4117 66.2509 22.8627 66.2509 25.4138H67.0509ZM70.9065 21.2117C73.1287 21.2117 74.7933 23.2028 74.7976 25.4007L75.5976 25.3991C75.5926 22.8463 73.6516 20.4117 70.9065 20.4117V21.2117ZM74.7991 25.0058C74.6246 23.026 73.0987 21.1498 70.9096 21.1498V21.9498C72.586 21.9498 73.8548 23.4037 74.0022 25.076L74.7991 25.0058ZM70.9096 21.1498C68.717 21.1498 67.2193 23.0295 67.0205 25.0007L67.8165 25.081C67.986 23.4002 69.2366 21.9498 70.9096 21.9498V21.1498ZM67.4185 25.4409H74.4006V24.6409H67.4185V25.4409ZM83.8827 21.3363C83.8827 21.3593 83.8795 21.3678 83.8801 21.3662C83.8803 21.3654 83.8814 21.3626 83.8838 21.3584C83.8862 21.3543 83.8894 21.3498 83.8934 21.3453C83.8974 21.3409 83.9014 21.3375 83.9048 21.335C83.9081 21.3325 83.9103 21.3315 83.9106 21.3314C83.9108 21.3312 83.903 21.335 83.8831 21.3377L83.9922 22.1302C84.1657 22.1063 84.3485 22.0351 84.4871 21.8816C84.6276 21.726 84.6827 21.5304 84.6827 21.3363H83.8827ZM83.88 21.3381C82.6882 21.5115 81.8027 22.0927 81.2227 22.926C80.6493 23.7501 80.3917 24.7947 80.3917 25.8842H81.1917C81.1917 24.9126 81.4222 24.0399 81.8794 23.383C82.3301 22.7354 83.0175 22.272 83.9952 22.1298L83.88 21.3381ZM80.3917 25.8842V29.4186H81.1917V25.8842H80.3917ZM80.3917 29.4186C80.3917 29.4197 80.3911 29.4177 80.3948 29.413C80.397 29.4102 80.4007 29.4066 80.4061 29.4034C80.4118 29.4001 80.4172 29.3984 80.4206 29.3979L80.5437 30.1884C80.9514 30.1249 81.1917 29.7699 81.1917 29.4186H80.3917ZM80.4204 29.3979C80.411 29.3994 80.4088 29.398 80.412 29.3988C80.4151 29.3996 80.4206 29.4019 80.4263 29.4068C80.4321 29.4116 80.4363 29.4175 80.4388 29.423C80.4414 29.4286 80.4411 29.4315 80.4411 29.4295H79.6411C79.6411 29.914 80.0605 30.2639 80.5439 30.1883L80.4204 29.3979ZM80.4411 29.4295V21.3749H79.6411V29.4295H80.4411ZM80.4411 21.3749C80.4411 21.3739 80.4417 21.3759 80.438 21.3806C80.4358 21.3834 80.4321 21.3869 80.4267 21.3901C80.421 21.3935 80.4156 21.3952 80.4122 21.3957L80.2891 20.6052C79.8814 20.6687 79.6411 21.0237 79.6411 21.3749H80.4411ZM80.4124 21.3957C80.4218 21.3942 80.424 21.3956 80.4208 21.3948C80.4177 21.3939 80.4122 21.3917 80.4064 21.3868C80.4007 21.382 80.3965 21.3761 80.3939 21.3706C80.3914 21.365 80.3917 21.3621 80.3917 21.3641H81.1917C81.1917 20.8796 80.7722 20.5297 80.2889 20.6052L80.4124 21.3957ZM80.3917 21.3641V23.0044H81.1917V21.3641H80.3917ZM81.1362 23.2075C81.7004 22.2504 82.8091 21.3927 83.8835 21.3927V20.5927C82.4262 20.5927 81.0961 21.7003 80.4471 22.8013L81.1362 23.2075ZM83.8935 21.3926C83.8901 21.3927 83.8919 21.3922 83.8971 21.3939C83.8994 21.3947 83.9014 21.3956 83.9031 21.3965C83.9049 21.3974 83.9057 21.398 83.9056 21.398C83.9056 21.398 83.9042 21.3969 83.902 21.3944C83.8998 21.3919 83.8967 21.3877 83.8934 21.3816C83.8861 21.3682 83.8812 21.3507 83.8812 21.3332H84.6812C84.6812 21.0815 84.5508 20.8869 84.3983 20.7677C84.2506 20.6522 84.061 20.5882 83.8735 20.5928L83.8935 21.3926ZM96.0179 25.3968C96.0179 25.3927 96.0189 25.3884 96.0203 25.385C96.0217 25.382 96.0231 25.3803 96.0239 25.3795C96.0251 25.3783 96.0285 25.3759 96.0341 25.3759V26.1759C96.4576 26.1759 96.8179 25.8329 96.8179 25.3968H96.0179ZM96.0341 25.3759H88.645V26.1759H96.0341V25.3759ZM88.2471 25.8164C88.4475 27.787 89.9433 29.667 92.1361 29.667V28.867C90.4634 28.867 89.214 27.4168 89.043 25.7355L88.2471 25.8164ZM92.1185 29.6666C92.7861 29.6959 93.4499 29.551 94.0445 29.2462L93.6795 28.5343C93.2084 28.7758 92.6825 28.8906 92.1536 28.8674L92.1185 29.6666ZM94.0445 29.2462C94.6391 28.9413 95.1442 28.4869 95.51 27.9277L94.8406 27.4897C94.5507 27.9327 94.1506 28.2927 93.6795 28.5343L94.0445 29.2462ZM95.4961 27.9476C95.5077 27.9321 95.5168 27.9232 95.5221 27.9188C95.5271 27.9146 95.5263 27.9164 95.5191 27.9192C95.5154 27.9206 95.5107 27.922 95.5051 27.923C95.4995 27.924 95.4941 27.9243 95.4893 27.9242C95.4789 27.9239 95.4772 27.9215 95.4861 27.9254L95.8053 27.1918C95.6132 27.1082 95.4135 27.1025 95.2312 27.1728C95.0604 27.2387 94.9376 27.3582 94.8545 27.4698L95.4961 27.9476ZM95.486 27.9253C95.4792 27.9224 95.4734 27.9178 95.4688 27.912L96.0995 27.4198C96.022 27.3205 95.921 27.2422 95.8055 27.1919L95.486 27.9253ZM95.4688 27.912C95.4643 27.9062 95.4613 27.8994 95.4601 27.8921L96.2492 27.7605C96.2285 27.6363 96.177 27.5192 96.0995 27.4198L95.4688 27.912ZM95.4601 27.8921C95.4609 27.897 95.4604 27.8964 95.4605 27.8916C95.4608 27.8865 95.4616 27.8811 95.4627 27.8766C95.4637 27.8727 95.4642 27.8724 95.4617 27.8785C95.4603 27.8818 95.4585 27.8861 95.4555 27.8927C95.454 27.896 95.4524 27.8995 95.4504 27.9038C95.4486 27.9078 95.4463 27.9127 95.4441 27.9177L96.1724 28.2487C96.2043 28.1785 96.291 28.0113 96.2492 27.7605L95.4601 27.8921ZM95.4611 27.8844C94.8077 29.025 93.4818 29.6175 92.133 29.6175V30.4175C93.6872 30.4175 95.3231 29.7349 96.1553 28.282L95.4611 27.8844ZM92.133 29.6175C89.9141 29.6175 88.2775 27.6212 88.2775 25.4154H87.4775C87.4775 27.9664 89.3815 30.4175 92.133 30.4175V29.6175ZM88.2775 25.4154C88.2775 23.2096 89.9155 21.2132 92.133 21.2132V20.4132C89.3831 20.4132 87.4775 22.8642 87.4775 25.4154H88.2775ZM92.133 21.2132C94.3547 21.2132 96.0152 23.2037 96.0195 25.4022L96.8195 25.4007C96.8145 22.8485 94.8786 20.4132 92.133 20.4132V21.2132ZM96.0442 25.0073C95.8697 23.0276 94.3438 21.1514 92.1547 21.1514V21.9514C93.8311 21.9514 95.0999 23.4053 95.2473 25.0775L96.0442 25.0073ZM92.1547 21.1514C89.9621 21.1514 88.4644 23.0311 88.2656 25.0023L89.0616 25.0826C89.2311 23.4018 90.4817 21.9514 92.1547 21.9514V21.1514ZM88.6636 25.4424H95.6457V24.6424H88.6636V25.4424ZM107.966 21.4306V29.5038H108.766V21.4306H107.966ZM107.966 29.5038C107.966 29.4982 107.967 29.4916 107.97 29.4858C107.972 29.4806 107.975 29.478 107.976 29.4771C107.976 29.4764 107.977 29.4758 107.979 29.475C107.981 29.4742 107.987 29.472 107.998 29.472V30.272C108.379 30.272 108.766 29.9596 108.766 29.5038H107.966ZM107.998 29.472C107.995 29.472 107.997 29.4716 108.002 29.4738C108.007 29.4758 108.013 29.4794 108.018 29.4845C108.023 29.4895 108.026 29.4948 108.028 29.4992C108.03 29.5036 108.029 29.5056 108.029 29.5038H107.229C107.229 29.9276 107.559 30.272 107.998 30.272V29.472ZM108.029 29.5038V27.9563H107.229V29.5038H108.029ZM107.271 27.778C106.713 28.8981 105.745 29.6454 104.561 29.6454V30.4454C106.125 30.4454 107.332 29.4502 107.987 28.1346L107.271 27.778ZM104.561 29.6454C103.592 29.6454 102.851 29.2304 102.344 28.593C101.829 27.947 101.547 27.06 101.547 26.1303H100.747C100.747 27.2123 101.074 28.2828 101.718 29.0914C102.369 29.9086 103.335 30.4454 104.561 30.4454V29.6454ZM101.547 26.1303V21.3951H100.747V26.1303H101.547ZM101.547 21.3951C101.547 21.4063 101.545 21.413 101.544 21.4153C101.543 21.4175 101.542 21.4182 101.542 21.4184C101.542 21.4185 101.533 21.4268 101.515 21.4268V20.6268C101.072 20.6268 100.747 21.0037 100.747 21.3951H101.547ZM101.515 21.4268C101.507 21.4268 101.499 21.4246 101.494 21.4223C101.491 21.4212 101.49 21.4203 101.489 21.4197C101.488 21.4191 101.488 21.4188 101.488 21.4187C101.488 21.4187 101.488 21.4188 101.488 21.4187C101.488 21.4187 101.488 21.4182 101.487 21.417C101.486 21.4152 101.484 21.4079 101.484 21.3951H102.284C102.284 21.009 101.961 20.6268 101.515 20.6268V21.4268ZM101.484 21.3951V26.1303H102.284V21.3951H101.484ZM101.484 26.1303C101.484 26.9933 101.726 27.8759 102.234 28.5532C102.75 29.2416 103.532 29.7057 104.554 29.7057V28.9057C103.803 28.9057 103.25 28.5759 102.874 28.0735C102.489 27.56 102.284 26.855 102.284 26.1303H101.484ZM104.554 29.7057C105.24 29.7057 105.82 29.5443 106.298 29.2393C106.774 28.935 107.124 28.5038 107.378 28.0024C107.878 27.0135 108.023 25.7121 108.023 24.4126H107.223C107.223 25.6804 107.077 26.8255 106.664 27.6413C106.461 28.0423 106.199 28.353 105.867 28.5651C105.536 28.7763 105.111 28.9057 104.554 28.9057V29.7057ZM108.023 24.4126V21.3827H107.223V24.4126H108.023ZM108.023 21.3827C108.023 21.3954 108.02 21.4013 108.02 21.4015C108.02 21.4017 108.02 21.4017 108.019 21.4025C108.018 21.4037 108.013 21.4074 108.003 21.4095C107.999 21.4106 107.994 21.411 107.99 21.4109C107.986 21.4108 107.984 21.4101 107.985 21.4103L108.212 20.6432C107.648 20.4764 107.223 20.9515 107.223 21.3827H108.023ZM107.971 21.4059C107.966 21.4045 107.965 21.4025 107.966 21.4033C107.967 21.4044 107.966 21.4043 107.966 21.4012H108.766C108.766 21.0687 108.554 20.7581 108.226 20.6477L107.971 21.4059ZM126.659 24.6927V29.4279H127.459V24.6927H126.659ZM126.659 29.4279C126.659 29.4224 126.661 29.4157 126.663 29.4099C126.666 29.4047 126.668 29.4022 126.669 29.4013C126.67 29.4006 126.671 29.3999 126.672 29.3991C126.674 29.3984 126.68 29.3962 126.691 29.3962V30.1962C127.072 30.1962 127.459 29.8837 127.459 29.4279H126.659ZM126.691 29.3962C126.688 29.3962 126.69 29.3958 126.695 29.3979C126.701 29.4 126.706 29.4036 126.711 29.4087C126.716 29.4137 126.719 29.419 126.721 29.4234C126.723 29.4278 126.723 29.4297 126.723 29.4279H125.923C125.923 29.8518 126.252 30.1962 126.691 30.1962V29.3962ZM126.723 29.4279V24.6927H125.923V29.4279H126.723ZM126.723 24.6927C126.723 23.8294 126.48 22.9532 125.971 22.2826C125.454 21.6009 124.671 21.1467 123.652 21.1467V21.9467C124.406 21.9467 124.958 22.2717 125.333 22.7661C125.717 23.2715 125.923 23.9683 125.923 24.6927H126.723ZM123.652 21.1467C122.367 21.1467 121.483 21.8453 120.939 22.7634C120.404 23.667 120.183 24.7999 120.183 25.7759H120.983C120.983 24.9012 121.184 23.9195 121.628 23.1711C122.062 22.4374 122.712 21.9467 123.652 21.9467V21.1467ZM120.183 25.7759V29.4279H120.983V25.7759H120.183ZM120.183 29.4279C120.183 29.4224 120.184 29.4157 120.187 29.4099C120.189 29.4047 120.192 29.4022 120.193 29.4013C120.194 29.4006 120.194 29.3999 120.196 29.3991C120.198 29.3984 120.204 29.3962 120.215 29.3962V30.1962C120.596 30.1962 120.983 29.8837 120.983 29.4279H120.183ZM120.215 29.3962C120.212 29.3962 120.214 29.3958 120.219 29.3979C120.224 29.4 120.23 29.4036 120.235 29.4087C120.24 29.4137 120.243 29.419 120.245 29.4234C120.247 29.4278 120.246 29.4297 120.246 29.4279H119.446C119.446 29.8518 119.776 30.1962 120.215 30.1962V29.3962ZM120.246 29.4279V24.6927H119.446V29.4279H120.246ZM120.246 24.6927C120.246 23.8294 120.003 22.9532 119.495 22.2826C118.978 21.6009 118.195 21.1467 117.176 21.1467V21.9467C117.93 21.9467 118.482 22.2717 118.857 22.7661C119.241 23.2715 119.446 23.9683 119.446 24.6927H120.246ZM117.176 21.1467C115.93 21.1467 115.008 21.6459 114.425 22.5018C113.856 23.336 113.641 24.464 113.684 25.688L114.483 25.6596C114.443 24.5284 114.649 23.5928 115.086 22.9522C115.507 22.3334 116.172 21.9467 117.176 21.9467V21.1467ZM113.684 25.6738C113.684 25.7114 113.688 25.7479 113.689 25.7649C113.692 25.7904 113.693 25.7991 113.694 25.8114C113.696 25.8244 113.694 25.815 113.695 25.7954C113.696 25.785 113.699 25.7596 113.709 25.7269C113.719 25.696 113.743 25.6348 113.801 25.5766L114.367 26.1423C114.431 26.078 114.459 26.008 114.472 25.9664C114.486 25.9229 114.491 25.8846 114.493 25.8599C114.497 25.8116 114.494 25.7675 114.492 25.7439C114.49 25.7197 114.486 25.69 114.485 25.6795C114.483 25.6604 114.484 25.6633 114.484 25.6738H113.684ZM113.684 25.8595V29.4186H114.484V25.8595H113.684ZM113.684 29.4186C113.684 29.4199 113.683 29.4192 113.686 29.4157C113.687 29.4135 113.691 29.4098 113.697 29.4061C113.703 29.4022 113.711 29.3995 113.718 29.3983L113.846 30.188C114.248 30.1226 114.484 29.7649 114.484 29.4186H113.684ZM113.72 29.3979C113.711 29.3994 113.709 29.398 113.712 29.3988C113.715 29.3996 113.72 29.4019 113.726 29.4068C113.732 29.4116 113.736 29.4175 113.739 29.423C113.741 29.4286 113.741 29.4315 113.741 29.4295H112.941C112.941 29.914 113.36 30.2639 113.844 30.1883L113.72 29.3979ZM113.741 29.4295V21.3363H112.941V29.4295H113.741ZM113.741 21.3363C113.741 21.3352 113.742 21.3372 113.738 21.3419C113.736 21.3447 113.732 21.3483 113.727 21.3515C113.721 21.3548 113.715 21.3565 113.712 21.357L113.589 20.5665C113.181 20.63 112.941 20.9851 112.941 21.3363H113.741ZM113.712 21.357C113.722 21.3555 113.724 21.3569 113.721 21.3561C113.717 21.3553 113.712 21.353 113.706 21.3481C113.701 21.3433 113.696 21.3375 113.694 21.3319C113.691 21.3263 113.691 21.3234 113.691 21.3254H114.491C114.491 20.8409 114.072 20.491 113.589 20.5666L113.712 21.357ZM113.691 21.3254V22.6748H114.491V21.3254H113.691ZM114.443 22.8662C114.997 21.8494 116.02 21.1962 117.183 21.1962V20.3962C115.706 20.3962 114.424 21.2286 113.74 22.4834L114.443 22.8662ZM117.183 21.1962C118.497 21.1962 119.523 22.0182 119.95 23.2797L120.708 23.0232C120.185 21.4776 118.881 20.3962 117.183 20.3962V21.1962ZM120.695 23.313C121.254 22.0482 122.318 21.1962 123.659 21.1962V20.3962C121.93 20.3962 120.618 21.5064 119.963 22.9899L120.695 23.313ZM123.659 21.1962C125.535 21.1962 126.673 22.7929 126.673 24.6648H127.473C127.473 22.5133 126.123 20.3962 123.659 20.3962V21.1962Z" fill="white" mask="url(#path-1-outside-1_154_943)"/>
<g opacity="0.6">
<path d="M13.39 16.127L0 22.2167L13.39 30.1275L26.7748 22.2167L13.39 16.127Z" fill="white"/>
</g>
<g opacity="0.45">
<path d="M0 22.2167L13.39 30.1276V0L0 22.2167Z" fill="white"/>
</g>
<g opacity="0.8">
<path d="M13.3901 -0.000244141V30.1273L26.7749 22.2165L13.3901 -0.000244141Z" fill="white"/>
</g>
<g opacity="0.45">
<path d="M0 24.7539L13.39 43.6179V32.6648L0 24.7539Z" fill="white"/>
</g>
<g opacity="0.8">
<path d="M13.3901 32.6648V43.6179L26.7854 24.7539L13.3901 32.6648Z" fill="white"/>
</g>
</svg>
