<svg width="20" height="25" viewBox="0 0 20 25" fill="none" xmlns="http://www.w3.org/2000/svg">
<path d="M19 7.50049H7C6.73478 7.50049 6.48043 7.63218 6.29289 7.8666C6.10536 8.10103 6 8.41897 6 8.75049V23.7505C6 24.082 6.10536 24.4 6.29289 24.6344C6.48043 24.8688 6.73478 25.0005 7 25.0005H19C19.2652 25.0005 19.5196 24.8688 19.7071 24.6344C19.8946 24.4 20 24.082 20 23.7505V8.75049C20 8.41897 19.8946 8.10103 19.7071 7.8666C19.5196 7.63218 19.2652 7.50049 19 7.50049ZM18 22.5005H8V10.0005H18V22.5005ZM4 16.2505C4 16.582 3.89464 16.9 3.70711 17.1344C3.51957 17.3688 3.26522 17.5005 3 17.5005H1C0.734784 17.5005 0.48043 17.3688 0.292893 17.1344C0.105357 16.9 0 16.582 0 16.2505V1.25049C0 0.918968 0.105357 0.601025 0.292893 0.366605C0.48043 0.132184 0.734784 0.000488281 1 0.000488281H13C13.2652 0.000488281 13.5196 0.132184 13.7071 0.366605C13.8946 0.601025 14 0.918968 14 1.25049V3.75049C14 4.08201 13.8946 4.39995 13.7071 4.63437C13.5196 4.86879 13.2652 5.00049 13 5.00049C12.7348 5.00049 12.4804 4.86879 12.2929 4.63437C12.1054 4.39995 12 4.08201 12 3.75049V2.50049H2V15.0005H3C3.26522 15.0005 3.51957 15.1322 3.70711 15.3666C3.89464 15.601 4 15.919 4 16.2505Z" fill="white"/>
</svg>
