<svg width="42" height="42" viewBox="0 0 42 42" fill="none" xmlns="http://www.w3.org/2000/svg">
<g clip-path="url(#clip0_531_1738)">
<path d="M21 42C32.598 42 42 32.598 42 21C42 9.40202 32.598 0 21 0C9.40202 0 0 9.40202 0 21C0 32.598 9.40202 42 21 42Z" fill="#E6007A"/>
<path d="M21.966 9.1875C17.1006 9.1875 13.125 13.1408 13.125 18.0285C13.125 19.0116 13.2877 19.971 13.5922 20.9055C13.7 21.214 13.9246 21.4679 14.2177 21.6125C14.5108 21.7571 14.849 21.7808 15.1594 21.6786C15.4677 21.5705 15.7212 21.3458 15.8655 21.0527C16.0099 20.7597 16.0334 20.4217 15.9311 20.1114C15.6745 19.3828 15.5557 18.6129 15.5807 17.8408C15.6739 14.5438 18.3409 11.8296 21.6392 11.6668C22.5032 11.6214 23.3673 11.7522 24.1791 12.0514C24.9909 12.3505 25.7334 12.8116 26.3614 13.4067C26.9894 14.0017 27.4898 14.7184 27.8321 15.5129C28.1744 16.3075 28.3515 17.1633 28.3526 18.0285C28.3507 19.6556 27.7273 21.2204 26.61 22.4031C25.4926 23.5859 23.9657 24.2971 22.3414 24.3915C22.3414 24.3915 21.1011 24.4611 20.4934 24.5556C20.1889 24.6015 19.9552 24.6488 19.7912 24.6724C19.7203 24.696 19.6507 24.6251 19.6731 24.5543L19.8844 23.5266L21.0302 18.2398C21.097 17.9237 21.0363 17.594 20.8613 17.3224C20.6863 17.0508 20.4111 16.8593 20.0957 16.7895C19.7794 16.7228 19.4495 16.7836 19.1779 16.9589C18.9063 17.1342 18.7149 17.4096 18.6454 17.7253C18.6454 17.7253 15.8852 30.5904 15.8616 30.7309C15.7948 31.0472 15.8557 31.377 16.031 31.6486C16.2062 31.9203 16.4817 32.1117 16.7974 32.1812C17.1137 32.2479 17.4435 32.187 17.7151 32.0118C17.9868 31.8365 18.1782 31.5611 18.2477 31.2454C18.27 31.1049 18.6454 29.3974 18.6454 29.3974C18.7782 28.7713 19.1012 28.2016 19.5701 27.766C20.039 27.3305 20.631 27.0504 21.2651 26.964C21.7239 26.9138 22.1839 26.8748 22.6446 26.8472C24.8653 26.6741 26.9391 25.6701 28.4523 24.0356C29.9655 22.401 30.8068 20.256 30.8083 18.0285C30.8083 13.1408 26.8314 9.1875 21.966 9.1875ZM22.5973 29.5378C22.4069 29.4967 22.2102 29.4939 22.0186 29.5294C21.827 29.5648 21.6444 29.638 21.4813 29.7446C21.3182 29.8511 21.1779 29.989 21.0685 30.1502C20.959 30.3114 20.8827 30.4927 20.8438 30.6836C20.6797 31.479 21.1719 32.2744 21.9896 32.4384C22.1803 32.4797 22.3772 32.4827 22.569 32.4472C22.7608 32.4117 22.9436 32.3385 23.1069 32.2318C23.2701 32.125 23.4105 31.9869 23.52 31.8255C23.6294 31.6641 23.7057 31.4825 23.7444 31.2913C23.9072 30.4736 23.4163 29.7006 22.5973 29.5378Z" fill="white"/>
</g>
<defs>
<clipPath id="clip0_531_1738">
<rect width="42" height="42" fill="white"/>
</clipPath>
</defs>
</svg>
